<?xml version="1.0" encoding="utf-8"?>
<!-- Generator: Adobe Illustrator 15.0.0, SVG Export Plug-In . SVG Version: 6.00 Build 0)  -->
<!DOCTYPE svg PUBLIC "-//W3C//DTD SVG 1.1//EN" "http://www.w3.org/Graphics/SVG/1.1/DTD/svg11.dtd">
<svg version="1.1" id="Capa_1" xmlns="http://www.w3.org/2000/svg" xmlns:xlink="http://www.w3.org/1999/xlink" x="0px" y="0px"
	 width="397.278px" height="397.277px" viewBox="0 123.306 397.278 397.277" enable-background="new 0 123.306 397.278 397.277"
	 xml:space="preserve">
<g>
	<g>
		<path fill="#FFFFFF" d="M376.944,280.242l-27.885-4.73c-2.904-9.378-6.639-18.424-11.204-27.055l16.433-22.988
			c6.971-9.793,5.893-23.154-2.656-31.62l-24.73-24.731c-4.647-4.647-10.789-7.22-17.346-7.22c-5.146,0-10.042,1.577-14.191,4.564
			l-23.071,16.432c-8.963-4.73-18.341-8.631-28.051-11.536l-4.648-27.553c-1.992-11.868-12.2-20.499-24.233-20.499h-34.939
			c-12.034,0-22.242,8.631-24.234,20.499l-4.813,28.216c-9.295,2.905-18.341,6.723-26.972,11.37l-22.823-16.432
			c-4.149-2.988-9.129-4.564-14.274-4.564c-6.556,0-12.78,2.573-17.345,7.22l-24.814,24.731c-8.465,8.465-9.626,21.827-2.656,31.62
			l16.599,23.32c-4.565,8.714-8.216,17.76-11.038,27.138l-27.553,4.647C8.631,283.063,0,293.271,0,305.305v34.939
			c0,12.034,8.631,22.241,20.499,24.233l28.217,4.813c2.904,9.295,6.722,18.341,11.369,26.973l-16.349,22.739
			c-6.971,9.793-5.892,23.154,2.656,31.619l24.731,24.731c4.647,4.647,10.789,7.221,17.345,7.221c5.146,0,10.042-1.577,14.192-4.564
			l23.32-16.599c8.382,4.398,17.179,7.968,26.225,10.789l4.647,27.885c1.992,11.868,12.2,20.499,24.234,20.499h35.022
			c12.033,0,22.241-8.631,24.233-20.499l4.73-27.885c9.378-2.905,18.424-6.64,27.055-11.203l22.989,16.432
			c4.149,2.987,9.129,4.564,14.274,4.564l0,0c6.556,0,12.697-2.573,17.345-7.22l24.731-24.731c8.465-8.465,9.627-21.827,2.655-31.62
			L337.69,395.35c4.563-8.715,8.382-17.76,11.203-27.055l27.885-4.647c11.868-1.992,20.499-12.2,20.499-24.233v-34.939
			C397.443,292.441,388.812,282.233,376.944,280.242z M375.034,339.414c0,1.079-0.746,1.992-1.825,2.158l-34.856,5.81
			c-4.398,0.747-7.884,3.983-8.963,8.216c-3.153,12.2-7.967,23.901-14.44,34.773c-2.24,3.817-2.074,8.547,0.498,12.199
			l20.499,28.881c0.581,0.829,0.498,2.074-0.249,2.821l-24.731,24.73c-0.58,0.582-1.162,0.665-1.576,0.665
			c-0.498,0-0.913-0.167-1.245-0.416l-28.798-20.498c-3.569-2.572-8.383-2.738-12.2-0.498c-10.872,6.473-22.574,11.287-34.773,14.44
			c-4.316,1.079-7.552,4.647-8.217,8.963l-5.892,34.856c-0.166,1.078-1.079,1.825-2.157,1.825h-34.939
			c-1.08,0-1.992-0.747-2.158-1.825l-5.81-34.856c-0.747-4.398-3.983-7.884-8.216-8.963c-11.868-3.071-23.32-7.801-34.026-13.942
			c-1.743-0.996-3.735-1.494-5.644-1.494c-2.241,0-4.565,0.664-6.473,2.075l-29.047,20.664c-0.415,0.249-0.83,0.415-1.245,0.415
			c-0.333,0-0.996-0.082-1.577-0.664l-24.731-24.73c-0.747-0.747-0.831-1.909-0.249-2.821l20.416-28.632
			c2.573-3.652,2.739-8.465,0.498-12.283c-6.474-10.789-11.453-22.49-14.606-34.69c-1.162-4.232-4.648-7.469-8.963-8.216
			l-35.105-5.975c-1.079-0.166-1.826-1.079-1.826-2.158v-34.939c0-1.079,0.747-1.992,1.826-2.158l34.607-5.809
			c4.398-0.747,7.967-3.984,9.046-8.299c3.07-12.2,7.8-23.984,14.191-34.856c2.241-3.817,1.992-8.548-0.581-12.117l-20.665-29.047
			c-0.581-0.83-0.498-2.075,0.249-2.822l24.731-24.731c0.582-0.581,1.162-0.664,1.577-0.664c0.498,0,0.913,0.166,1.245,0.415
			l28.632,20.416c3.652,2.573,8.465,2.739,12.283,0.498c10.789-6.474,22.491-11.453,34.69-14.606
			c4.232-1.162,7.469-4.647,8.216-8.963l5.976-35.105c0.166-1.079,1.079-1.826,2.157-1.826h34.939c1.08,0,1.992,0.747,2.158,1.826
			l5.81,34.607c0.747,4.398,3.983,7.967,8.298,9.046c12.532,3.154,24.483,8.05,35.604,14.606c3.817,2.241,8.548,2.075,12.2-0.498
			l28.632-20.582c0.415-0.249,0.829-0.415,1.244-0.415c0.332,0,0.996,0.083,1.577,0.664l24.731,24.731
			c0.747,0.747,0.83,1.909,0.249,2.822l-20.499,28.798c-2.572,3.569-2.739,8.382-0.498,12.2
			c6.474,10.872,11.287,22.574,14.44,34.773c1.079,4.315,4.647,7.552,8.964,8.216l34.855,5.893c1.079,0.166,1.826,1.079,1.826,2.157
			v34.939H375.034z"/>
		<path fill="#FFFFFF" d="M198.68,236.173c-47.305,0-85.729,38.425-85.729,85.729c0,47.305,38.425,85.73,85.729,85.73
			s85.729-38.425,85.729-85.73C284.409,274.598,245.985,236.173,198.68,236.173z M198.68,385.225
			c-34.939,0-63.322-28.383-63.322-63.322s28.383-63.322,63.322-63.322s63.322,28.383,63.322,63.322S233.619,385.225,198.68,385.225
			z"/>
	</g>
</g>
</svg>
